<?xml version="1.0" encoding="UTF-8" standalone="no"?>
<!DOCTYPE svg PUBLIC "-//W3C//DTD SVG 1.1//EN"
 "http://www.w3.org/Graphics/SVG/1.1/DTD/svg11.dtd">
<!-- Generated by graphviz version 8.1.0 (20230707.0739)
 -->
<!-- Title: snakemake_dag Pages: 1 -->
<svg width="570pt" height="693pt"
 viewBox="0.00 0.00 570.34 692.50" xmlns="http://www.w3.org/2000/svg" xmlns:xlink="http://www.w3.org/1999/xlink">
<g id="graph0" class="graph" transform="scale(1 1) rotate(0) translate(4 688.5)">
<title>snakemake_dag</title>
<polygon fill="white" stroke="none" points="-4,4 -4,-688.5 566.34,-688.5 566.34,4 -4,4"/>
<!-- 0 -->
<g id="node1" class="node">
<title>0</title>
<path fill="none" stroke="#56d863" stroke-width="2" d="M275.88,-36C275.88,-36 245.88,-36 245.88,-36 239.88,-36 233.88,-30 233.88,-24 233.88,-24 233.88,-12 233.88,-12 233.88,-6 239.88,0 245.88,0 245.88,0 275.88,0 275.88,0 281.88,0 287.88,-6 287.88,-12 287.88,-12 287.88,-24 287.88,-24 287.88,-30 281.88,-36 275.88,-36"/>
<text text-anchor="middle" x="260.88" y="-15.62" font-family="sans" font-size="10.00">all</text>
</g>
<!-- 1 -->
<g id="node2" class="node">
<title>1</title>
<path fill="none" stroke="#d8b456" stroke-width="2" d="M84.88,-180C84.88,-180 26.88,-180 26.88,-180 20.88,-180 14.88,-174 14.88,-168 14.88,-168 14.88,-156 14.88,-156 14.88,-150 20.88,-144 26.88,-144 26.88,-144 84.88,-144 84.88,-144 90.88,-144 96.88,-150 96.88,-156 96.88,-156 96.88,-168 96.88,-168 96.88,-174 90.88,-180 84.88,-180"/>
<text text-anchor="middle" x="55.88" y="-159.62" font-family="sans" font-size="10.00">cnvkit_metrics</text>
</g>
<!-- 1&#45;&gt;0 -->
<g id="edge1" class="edge">
<title>1&#45;&gt;0</title>
<path fill="none" stroke="grey" stroke-width="2" d="M81.84,-143.02C117.96,-118 183.54,-72.57 224.52,-44.19"/>
<polygon fill="grey" stroke="grey" stroke-width="2" points="226.9,-46.41 233.12,-37.84 222.91,-40.66 226.9,-46.41"/>
</g>
<!-- 2 -->
<g id="node3" class="node">
<title>2</title>
<path fill="none" stroke="#5692d8" stroke-width="2" d="M278.25,-396C278.25,-396 243.5,-396 243.5,-396 237.5,-396 231.5,-390 231.5,-384 231.5,-384 231.5,-372 231.5,-372 231.5,-366 237.5,-360 243.5,-360 243.5,-360 278.25,-360 278.25,-360 284.25,-360 290.25,-366 290.25,-372 290.25,-372 290.25,-384 290.25,-384 290.25,-390 284.25,-396 278.25,-396"/>
<text text-anchor="middle" x="260.88" y="-375.62" font-family="sans" font-size="10.00">cnvkit_fix</text>
</g>
<!-- 2&#45;&gt;1 -->
<g id="edge8" class="edge">
<title>2&#45;&gt;1</title>
<path fill="none" stroke="grey" stroke-width="2" d="M230.79,-360.54C215.89,-351.28 198.45,-338.64 185.88,-324 150.91,-283.29 166.97,-256.6 131.88,-216 122.71,-205.39 110.98,-195.87 99.49,-187.91"/>
<polygon fill="grey" stroke="grey" stroke-width="2" points="100.92,-184.35 90.64,-181.79 97.07,-190.2 100.92,-184.35"/>
</g>
<!-- 9 -->
<g id="node10" class="node">
<title>9</title>
<path fill="none" stroke="#d85656" stroke-width="2" d="M293.25,-324C293.25,-324 228.5,-324 228.5,-324 222.5,-324 216.5,-318 216.5,-312 216.5,-312 216.5,-300 216.5,-300 216.5,-294 222.5,-288 228.5,-288 228.5,-288 293.25,-288 293.25,-288 299.25,-288 305.25,-294 305.25,-300 305.25,-300 305.25,-312 305.25,-312 305.25,-318 299.25,-324 293.25,-324"/>
<text text-anchor="middle" x="260.88" y="-303.62" font-family="sans" font-size="10.00">cnvkit_segment</text>
</g>
<!-- 2&#45;&gt;9 -->
<g id="edge21" class="edge">
<title>2&#45;&gt;9</title>
<path fill="none" stroke="grey" stroke-width="2" d="M260.88,-359.34C260.88,-352.75 260.88,-345.08 260.88,-337.67"/>
<polygon fill="grey" stroke="grey" stroke-width="2" points="264.38,-337.9 260.88,-327.9 257.38,-337.9 264.38,-337.9"/>
</g>
<!-- 10 -->
<g id="node11" class="node">
<title>10</title>
<path fill="none" stroke="#d87556" stroke-width="2" d="M182.75,-180C182.75,-180 127,-180 127,-180 121,-180 115,-174 115,-168 115,-168 115,-156 115,-156 115,-150 121,-144 127,-144 127,-144 182.75,-144 182.75,-144 188.75,-144 194.75,-150 194.75,-156 194.75,-156 194.75,-168 194.75,-168 194.75,-174 188.75,-180 182.75,-180"/>
<text text-anchor="middle" x="154.88" y="-159.62" font-family="sans" font-size="10.00">cnvkit_bintest</text>
</g>
<!-- 2&#45;&gt;10 -->
<g id="edge22" class="edge">
<title>2&#45;&gt;10</title>
<path fill="none" stroke="grey" stroke-width="2" d="M238.56,-359.04C228.01,-349.57 215.99,-337.19 207.88,-324 182.25,-282.37 167.57,-226.98 160.41,-193.21"/>
<polygon fill="grey" stroke="grey" stroke-width="2" points="163.28,-191.69 157.88,-182.58 156.41,-193.07 163.28,-191.69"/>
</g>
<!-- 11 -->
<g id="node12" class="node">
<title>11</title>
<path fill="none" stroke="#56b1d8" stroke-width="2" d="M111,-252C111,-252 56.75,-252 56.75,-252 50.75,-252 44.75,-246 44.75,-240 44.75,-240 44.75,-228 44.75,-228 44.75,-222 50.75,-216 56.75,-216 56.75,-216 111,-216 111,-216 117,-216 123,-222 123,-228 123,-228 123,-240 123,-240 123,-246 117,-252 111,-252"/>
<text text-anchor="middle" x="83.88" y="-231.62" font-family="sans" font-size="10.00">cnvkit_breaks</text>
</g>
<!-- 2&#45;&gt;11 -->
<g id="edge24" class="edge">
<title>2&#45;&gt;11</title>
<path fill="none" stroke="grey" stroke-width="2" d="M230.69,-369.84C203.63,-362.19 164.1,-347.82 136.88,-324 118.45,-307.87 104.63,-283.72 95.73,-264.65"/>
<polygon fill="grey" stroke="grey" stroke-width="2" points="98.82,-262.72 91.59,-254.98 92.42,-265.54 98.82,-262.72"/>
</g>
<!-- 12 -->
<g id="node13" class="node">
<title>12</title>
<path fill="none" stroke="#56d8a2" stroke-width="2" d="M492.88,-252C492.88,-252 410.88,-252 410.88,-252 404.88,-252 398.88,-246 398.88,-240 398.88,-240 398.88,-228 398.88,-228 398.88,-222 404.88,-216 410.88,-216 410.88,-216 492.88,-216 492.88,-216 498.88,-216 504.88,-222 504.88,-228 504.88,-228 504.88,-240 504.88,-240 504.88,-246 498.88,-252 492.88,-252"/>
<text text-anchor="middle" x="451.88" y="-231.62" font-family="sans" font-size="10.00">cnvkit_genemetrics</text>
</g>
<!-- 2&#45;&gt;12 -->
<g id="edge26" class="edge">
<title>2&#45;&gt;12</title>
<path fill="none" stroke="grey" stroke-width="2" d="M291.25,-368.9C317.9,-360.71 356.68,-346.09 384.88,-324 405.8,-307.6 423.57,-283.15 435.54,-264.02"/>
<polygon fill="grey" stroke="grey" stroke-width="2" points="439.07,-265.3 441.22,-254.92 433.07,-261.69 439.07,-265.3"/>
</g>
<!-- 13 -->
<g id="node14" class="node">
<title>13</title>
<path fill="none" stroke="#68d856" stroke-width="2" d="M414.88,-180C414.88,-180 338.88,-180 338.88,-180 332.88,-180 326.88,-174 326.88,-168 326.88,-168 326.88,-156 326.88,-156 326.88,-150 332.88,-144 338.88,-144 338.88,-144 414.88,-144 414.88,-144 420.88,-144 426.88,-150 426.88,-156 426.88,-156 426.88,-168 426.88,-168 426.88,-174 420.88,-180 414.88,-180"/>
<text text-anchor="middle" x="376.88" y="-159.62" font-family="sans" font-size="10.00">cnvkit_scatter_pdf</text>
</g>
<!-- 2&#45;&gt;13 -->
<g id="edge28" class="edge">
<title>2&#45;&gt;13</title>
<path fill="none" stroke="grey" stroke-width="2" d="M282.62,-359.08C293.15,-349.53 305.33,-337.07 313.88,-324 317.65,-318.23 348.48,-237.76 365.57,-192.83"/>
<polygon fill="grey" stroke="grey" stroke-width="2" points="368.81,-193.51 369.09,-182.92 362.26,-191.03 368.81,-193.51"/>
</g>
<!-- 14 -->
<g id="node15" class="node">
<title>14</title>
<path fill="none" stroke="#56d882" stroke-width="2" d="M535,-180C535,-180 456.75,-180 456.75,-180 450.75,-180 444.75,-174 444.75,-168 444.75,-168 444.75,-156 444.75,-156 444.75,-150 450.75,-144 456.75,-144 456.75,-144 535,-144 535,-144 541,-144 547,-150 547,-156 547,-156 547,-168 547,-168 547,-174 541,-180 535,-180"/>
<text text-anchor="middle" x="495.88" y="-159.62" font-family="sans" font-size="10.00">cnvkit_scatter_png</text>
</g>
<!-- 2&#45;&gt;14 -->
<g id="edge30" class="edge">
<title>2&#45;&gt;14</title>
<path fill="none" stroke="grey" stroke-width="2" d="M291.24,-359.96C305.76,-350.71 322.62,-338.26 334.88,-324 369.99,-283.16 351.65,-253.95 389.88,-216 401.98,-203.99 417.35,-194.2 432.61,-186.45"/>
<polygon fill="grey" stroke="grey" stroke-width="2" points="434.69,-189.39 442.21,-181.92 431.67,-183.07 434.69,-189.39"/>
</g>
<!-- 3 -->
<g id="node4" class="node">
<title>3</title>
<path fill="none" stroke="#bed856" stroke-width="2" d="M235.5,-540C235.5,-540 136.25,-540 136.25,-540 130.25,-540 124.25,-534 124.25,-528 124.25,-528 124.25,-516 124.25,-516 124.25,-510 130.25,-504 136.25,-504 136.25,-504 235.5,-504 235.5,-504 241.5,-504 247.5,-510 247.5,-516 247.5,-516 247.5,-528 247.5,-528 247.5,-534 241.5,-540 235.5,-540"/>
<text text-anchor="middle" x="185.88" y="-519.62" font-family="sans" font-size="10.00">cnvkit_target_coverage</text>
</g>
<!-- 3&#45;&gt;2 -->
<g id="edge10" class="edge">
<title>3&#45;&gt;2</title>
<path fill="none" stroke="grey" stroke-width="2" d="M186.58,-503.19C188.01,-484.4 192.27,-454.46 204.88,-432 210.39,-422.18 218.32,-413.1 226.49,-405.32"/>
<polygon fill="grey" stroke="grey" stroke-width="2" points="228.9,-408.09 234.06,-398.83 224.25,-402.85 228.9,-408.09"/>
</g>
<!-- 7 -->
<g id="node8" class="node">
<title>7</title>
<path fill="none" stroke="#d89556" stroke-width="2" d="M295.5,-468C295.5,-468 226.25,-468 226.25,-468 220.25,-468 214.25,-462 214.25,-456 214.25,-456 214.25,-444 214.25,-444 214.25,-438 220.25,-432 226.25,-432 226.25,-432 295.5,-432 295.5,-432 301.5,-432 307.5,-438 307.5,-444 307.5,-444 307.5,-456 307.5,-456 307.5,-462 301.5,-468 295.5,-468"/>
<text text-anchor="middle" x="260.88" y="-447.62" font-family="sans" font-size="10.00">cnvkit_reference</text>
</g>
<!-- 3&#45;&gt;7 -->
<g id="edge18" class="edge">
<title>3&#45;&gt;7</title>
<path fill="none" stroke="grey" stroke-width="2" d="M204.8,-503.34C213.17,-495.52 223.2,-486.16 232.45,-477.53"/>
<polygon fill="grey" stroke="grey" stroke-width="2" points="234.77,-480.28 239.69,-470.9 230,-475.17 234.77,-480.28"/>
</g>
<!-- 4 -->
<g id="node5" class="node">
<title>4</title>
<path fill="none" stroke="#56d0d8" stroke-width="2" d="M294.88,-684.5C294.88,-684.5 230.88,-684.5 230.88,-684.5 224.88,-684.5 218.88,-678.5 218.88,-672.5 218.88,-672.5 218.88,-660 218.88,-660 218.88,-654 224.88,-648 230.88,-648 230.88,-648 294.88,-648 294.88,-648 300.88,-648 306.88,-654 306.88,-660 306.88,-660 306.88,-672.5 306.88,-672.5 306.88,-678.5 300.88,-684.5 294.88,-684.5"/>
<text text-anchor="middle" x="262.88" y="-671" font-family="sans" font-size="10.00">samtools_sort</text>
<text text-anchor="middle" x="262.88" y="-656.75" font-family="sans" font-size="10.00">sample: Sample</text>
</g>
<!-- 4&#45;&gt;3 -->
<g id="edge13" class="edge">
<title>4&#45;&gt;3</title>
<path fill="none" stroke="grey" stroke-width="2" d="M240.48,-647.02C230.14,-637.55 218.5,-625.2 210.88,-612 200.45,-593.95 194.17,-571.3 190.51,-553.37"/>
<polygon fill="grey" stroke="grey" stroke-width="2" points="193.44,-551.94 188.2,-542.73 186.55,-553.2 193.44,-551.94"/>
</g>
<!-- 5 -->
<g id="node6" class="node">
<title>5</title>
<path fill="none" stroke="#56d8c1" stroke-width="2" d="M294.13,-612C294.13,-612 231.63,-612 231.63,-612 225.63,-612 219.63,-606 219.63,-600 219.63,-600 219.63,-588 219.63,-588 219.63,-582 225.63,-576 231.63,-576 231.63,-576 294.13,-576 294.13,-576 300.13,-576 306.13,-582 306.13,-588 306.13,-588 306.13,-600 306.13,-600 306.13,-606 300.13,-612 294.13,-612"/>
<text text-anchor="middle" x="262.88" y="-591.62" font-family="sans" font-size="10.00">samtools_index</text>
</g>
<!-- 4&#45;&gt;5 -->
<g id="edge15" class="edge">
<title>4&#45;&gt;5</title>
<path fill="none" stroke="grey" stroke-width="2" d="M262.88,-647.16C262.88,-640.64 262.88,-633.08 262.88,-625.77"/>
<polygon fill="grey" stroke="grey" stroke-width="2" points="266.38,-625.79 262.88,-615.79 259.38,-625.79 266.38,-625.79"/>
</g>
<!-- 6 -->
<g id="node7" class="node">
<title>6</title>
<path fill="none" stroke="#5673d8" stroke-width="2" d="M394.13,-540C394.13,-540 277.63,-540 277.63,-540 271.63,-540 265.63,-534 265.63,-528 265.63,-528 265.63,-516 265.63,-516 265.63,-510 271.63,-504 277.63,-504 277.63,-504 394.13,-504 394.13,-504 400.13,-504 406.13,-510 406.13,-516 406.13,-516 406.13,-528 406.13,-528 406.13,-534 400.13,-540 394.13,-540"/>
<text text-anchor="middle" x="335.88" y="-519.62" font-family="sans" font-size="10.00">cnvkit_antitarget_coverage</text>
</g>
<!-- 4&#45;&gt;6 -->
<g id="edge16" class="edge">
<title>4&#45;&gt;6</title>
<path fill="none" stroke="grey" stroke-width="2" d="M285.51,-647.16C295.91,-637.72 307.53,-625.36 314.88,-612 324.81,-593.93 330.07,-571.28 332.84,-553.36"/>
<polygon fill="grey" stroke="grey" stroke-width="2" points="336.67,-554.1 334.51,-543.72 329.73,-553.18 336.67,-554.1"/>
</g>
<!-- 5&#45;&gt;3 -->
<g id="edge14" class="edge">
<title>5&#45;&gt;3</title>
<path fill="none" stroke="grey" stroke-width="2" d="M243.45,-575.34C234.85,-567.52 224.55,-558.16 215.06,-549.53"/>
<polygon fill="grey" stroke="grey" stroke-width="2" points="217.32,-547.04 207.57,-542.9 212.61,-552.22 217.32,-547.04"/>
</g>
<!-- 5&#45;&gt;6 -->
<g id="edge17" class="edge">
<title>5&#45;&gt;6</title>
<path fill="none" stroke="grey" stroke-width="2" d="M281.3,-575.34C289.36,-567.6 299,-558.36 307.92,-549.81"/>
<polygon fill="grey" stroke="grey" stroke-width="2" points="310.41,-552.35 315.21,-542.9 305.57,-547.3 310.41,-552.35"/>
</g>
<!-- 6&#45;&gt;2 -->
<g id="edge11" class="edge">
<title>6&#45;&gt;2</title>
<path fill="none" stroke="grey" stroke-width="2" d="M335.17,-503.19C333.74,-484.4 329.48,-454.46 316.88,-432 311.36,-422.18 303.43,-413.1 295.26,-405.32"/>
<polygon fill="grey" stroke="grey" stroke-width="2" points="297.5,-402.85 287.69,-398.83 292.85,-408.09 297.5,-402.85"/>
</g>
<!-- 6&#45;&gt;7 -->
<g id="edge19" class="edge">
<title>6&#45;&gt;7</title>
<path fill="none" stroke="grey" stroke-width="2" d="M316.95,-503.34C308.58,-495.52 298.55,-486.16 289.3,-477.53"/>
<polygon fill="grey" stroke="grey" stroke-width="2" points="291.75,-475.17 282.06,-470.9 286.98,-480.28 291.75,-475.17"/>
</g>
<!-- 7&#45;&gt;2 -->
<g id="edge12" class="edge">
<title>7&#45;&gt;2</title>
<path fill="none" stroke="grey" stroke-width="2" d="M260.88,-431.34C260.88,-424.75 260.88,-417.08 260.88,-409.67"/>
<polygon fill="grey" stroke="grey" stroke-width="2" points="264.38,-409.9 260.88,-399.9 257.38,-409.9 264.38,-409.9"/>
</g>
<!-- 8 -->
<g id="node9" class="node">
<title>8</title>
<path fill="none" stroke="#88d856" stroke-width="2" d="M279.75,-252C279.75,-252 242,-252 242,-252 236,-252 230,-246 230,-240 230,-240 230,-228 230,-228 230,-222 236,-216 242,-216 242,-216 279.75,-216 279.75,-216 285.75,-216 291.75,-222 291.75,-228 291.75,-228 291.75,-240 291.75,-240 291.75,-246 285.75,-252 279.75,-252"/>
<text text-anchor="middle" x="260.88" y="-231.62" font-family="sans" font-size="10.00">cnvkit_call</text>
</g>
<!-- 8&#45;&gt;1 -->
<g id="edge9" class="edge">
<title>8&#45;&gt;1</title>
<path fill="none" stroke="grey" stroke-width="2" d="M229.29,-222.22C197.47,-211.35 147.76,-194.38 109.71,-181.38"/>
<polygon fill="grey" stroke="grey" stroke-width="2" points="110.39,-177.23 99.8,-177.32 108.13,-183.86 110.39,-177.23"/>
</g>
<!-- 8&#45;&gt;10 -->
<g id="edge23" class="edge">
<title>8&#45;&gt;10</title>
<path fill="none" stroke="grey" stroke-width="2" d="M233.85,-215.15C221.27,-206.84 206.09,-196.82 192.41,-187.79"/>
<polygon fill="grey" stroke="grey" stroke-width="2" points="194.12,-184.4 183.85,-181.81 190.26,-190.24 194.12,-184.4"/>
</g>
<!-- 8&#45;&gt;13 -->
<g id="edge29" class="edge">
<title>8&#45;&gt;13</title>
<path fill="none" stroke="grey" stroke-width="2" d="M290.45,-215.15C304.35,-206.76 321.16,-196.62 336.24,-187.52"/>
<polygon fill="grey" stroke="grey" stroke-width="2" points="338.6,-189.98 345.36,-181.81 334.99,-183.98 338.6,-189.98"/>
</g>
<!-- 8&#45;&gt;14 -->
<g id="edge31" class="edge">
<title>8&#45;&gt;14</title>
<path fill="none" stroke="grey" stroke-width="2" d="M292.57,-223.56C328.07,-212.98 386.55,-195.57 431.69,-182.12"/>
<polygon fill="grey" stroke="grey" stroke-width="2" points="433.46,-184.65 442.04,-178.44 431.46,-177.94 433.46,-184.65"/>
</g>
<!-- 16 -->
<g id="node17" class="node">
<title>16</title>
<path fill="none" stroke="#d8d356" stroke-width="2" d="M297,-180C297,-180 224.75,-180 224.75,-180 218.75,-180 212.75,-174 212.75,-168 212.75,-168 212.75,-156 212.75,-156 212.75,-150 218.75,-144 224.75,-144 224.75,-144 297,-144 297,-144 303,-144 309,-150 309,-156 309,-156 309,-168 309,-168 309,-174 303,-180 297,-180"/>
<text text-anchor="middle" x="260.88" y="-159.62" font-family="sans" font-size="10.00">cnvkit_export_vcf</text>
</g>
<!-- 8&#45;&gt;16 -->
<g id="edge33" class="edge">
<title>8&#45;&gt;16</title>
<path fill="none" stroke="grey" stroke-width="2" d="M260.88,-215.34C260.88,-208.75 260.88,-201.08 260.88,-193.67"/>
<polygon fill="grey" stroke="grey" stroke-width="2" points="264.38,-193.9 260.88,-183.9 257.38,-193.9 264.38,-193.9"/>
</g>
<!-- 9&#45;&gt;8 -->
<g id="edge20" class="edge">
<title>9&#45;&gt;8</title>
<path fill="none" stroke="grey" stroke-width="2" d="M260.88,-287.34C260.88,-280.75 260.88,-273.08 260.88,-265.67"/>
<polygon fill="grey" stroke="grey" stroke-width="2" points="264.38,-265.9 260.88,-255.9 257.38,-265.9 264.38,-265.9"/>
</g>
<!-- 9&#45;&gt;11 -->
<g id="edge25" class="edge">
<title>9&#45;&gt;11</title>
<path fill="none" stroke="grey" stroke-width="2" d="M215.75,-287.15C191.37,-277.51 161.15,-265.56 135.8,-255.53"/>
<polygon fill="grey" stroke="grey" stroke-width="2" points="136.37,-252.21 125.79,-251.78 133.8,-258.72 136.37,-252.21"/>
</g>
<!-- 9&#45;&gt;12 -->
<g id="edge27" class="edge">
<title>9&#45;&gt;12</title>
<path fill="none" stroke="grey" stroke-width="2" d="M306.14,-288.41C331.51,-279.11 363.49,-267.39 391.02,-257.3"/>
<polygon fill="grey" stroke="grey" stroke-width="2" points="392.74,-260.67 400.92,-253.94 390.33,-254.1 392.74,-260.67"/>
</g>
<!-- 10&#45;&gt;0 -->
<g id="edge2" class="edge">
<title>10&#45;&gt;0</title>
<path fill="none" stroke="grey" stroke-width="2" d="M168.3,-143.02C186.38,-118.8 218.73,-75.45 240,-46.96"/>
<polygon fill="grey" stroke="grey" stroke-width="2" points="243.38,-48.95 246.56,-38.84 237.77,-44.76 243.38,-48.95"/>
</g>
<!-- 11&#45;&gt;0 -->
<g id="edge3" class="edge">
<title>11&#45;&gt;0</title>
<path fill="none" stroke="grey" stroke-width="2" d="M44.11,-216.01C29.32,-207.5 14.15,-195.63 5.88,-180 -1.61,-165.86 -2.13,-157.85 5.88,-144 50.72,-66.42 160.42,-35.99 220.29,-24.87"/>
<polygon fill="grey" stroke="grey" stroke-width="2" points="221.71,-27.82 230.96,-22.66 220.51,-20.93 221.71,-27.82"/>
</g>
<!-- 12&#45;&gt;0 -->
<g id="edge4" class="edge">
<title>12&#45;&gt;0</title>
<path fill="none" stroke="grey" stroke-width="2" d="M505.86,-218.49C525.08,-210.44 544.71,-198.23 555.88,-180 564.23,-166.36 564.62,-157.4 555.88,-144 499.11,-57.08 368.31,-30.46 301.6,-22.41"/>
<polygon fill="grey" stroke="grey" stroke-width="2" points="302.1,-18.62 291.77,-21 301.33,-25.57 302.1,-18.62"/>
</g>
<!-- 13&#45;&gt;0 -->
<g id="edge5" class="edge">
<title>13&#45;&gt;0</title>
<path fill="none" stroke="grey" stroke-width="2" d="M362.18,-143.02C342.31,-118.69 306.68,-75.07 283.41,-46.58"/>
<polygon fill="grey" stroke="grey" stroke-width="2" points="285.48,-44.37 276.45,-38.84 280.06,-48.8 285.48,-44.37"/>
</g>
<!-- 14&#45;&gt;0 -->
<g id="edge6" class="edge">
<title>14&#45;&gt;0</title>
<path fill="none" stroke="grey" stroke-width="2" d="M466.11,-143.02C423.78,-117.44 346.15,-70.53 299.46,-42.31"/>
<polygon fill="grey" stroke="grey" stroke-width="2" points="300.94,-38.91 290.57,-36.74 297.32,-44.9 300.94,-38.91"/>
</g>
<!-- 15 -->
<g id="node16" class="node">
<title>15</title>
<path fill="none" stroke="#9fd856" stroke-width="2" d="M275.88,-108C275.88,-108 245.88,-108 245.88,-108 239.88,-108 233.88,-102 233.88,-96 233.88,-96 233.88,-84 233.88,-84 233.88,-78 239.88,-72 245.88,-72 245.88,-72 275.88,-72 275.88,-72 281.88,-72 287.88,-78 287.88,-84 287.88,-84 287.88,-96 287.88,-96 287.88,-102 281.88,-108 275.88,-108"/>
<text text-anchor="middle" x="260.88" y="-87.62" font-family="sans" font-size="10.00">annotsv</text>
</g>
<!-- 15&#45;&gt;0 -->
<g id="edge7" class="edge">
<title>15&#45;&gt;0</title>
<path fill="none" stroke="grey" stroke-width="2" d="M260.88,-71.34C260.88,-64.75 260.88,-57.08 260.88,-49.67"/>
<polygon fill="grey" stroke="grey" stroke-width="2" points="264.38,-49.9 260.88,-39.9 257.38,-49.9 264.38,-49.9"/>
</g>
<!-- 16&#45;&gt;15 -->
<g id="edge32" class="edge">
<title>16&#45;&gt;15</title>
<path fill="none" stroke="grey" stroke-width="2" d="M260.88,-143.34C260.88,-136.75 260.88,-129.08 260.88,-121.67"/>
<polygon fill="grey" stroke="grey" stroke-width="2" points="264.38,-121.9 260.88,-111.9 257.38,-121.9 264.38,-121.9"/>
</g>
</g>
</svg>
